<?xml version="1.0" encoding="UTF-8" standalone="no"?>
<!DOCTYPE svg PUBLIC "-//W3C//DTD SVG 1.1//EN" "http://www.w3.org/Graphics/SVG/1.1/DTD/svg11.dtd">
<svg xmlns="http://www.w3.org/2000/svg" xmlns:xlink="http://www.w3.org/1999/xlink" width="100" height="100" viewBox="0 0 100 100" version="1.1">
    <path style=" stroke:none;fill-rule:nonzero;fill:currentColor;fill-opacity:1;"
        d="M 100.007812 50.011719 C 100.007812 77.628906 77.621094 100.015625 50.003906 100.015625 C 22.386719 100.015625 0 77.628906 0 50.011719 C 0 22.394531 22.386719 0.0078125 50.003906 0.0078125 C 77.621094 0.0078125 100.007812 22.394531 100.007812 50.011719 Z M 100.007812 50.011719 " />
    <path style=" stroke:none;fill-rule:nonzero;fill:rgb(100%,100%,100%);fill-opacity:1;"
        d="M 69.46875 64.46875 L 71.683594 50.011719 L 57.816406 50.011719 L 57.816406 40.628906 C 57.816406 36.679688 59.75 32.816406 65.96875 32.816406 L 72.273438 32.816406 L 72.273438 20.511719 C 72.273438 20.511719 66.550781 19.535156 61.078125 19.535156 C 49.660156 19.535156 42.191406 26.453125 42.191406 38.992188 L 42.191406 50.011719 L 29.492188 50.011719 L 29.492188 64.46875 L 42.191406 64.46875 L 42.191406 99.410156 C 44.738281 99.8125 47.347656 100.015625 50.003906 100.015625 C 52.664062 100.015625 55.269531 99.804688 57.816406 99.410156 L 57.816406 64.46875 Z M 69.46875 64.46875 " />
</svg>