<?xml version="1.0" encoding="UTF-8" standalone="no"?>
<!DOCTYPE svg PUBLIC "-//W3C//DTD SVG 1.1//EN" "http://www.w3.org/Graphics/SVG/1.1/DTD/svg11.dtd">
<svg xmlns="http://www.w3.org/2000/svg" xmlns:xlink="http://www.w3.org/1999/xlink" width="100" height="100" viewBox="0 0 100 100" version="1.1">
        <path style=" stroke:none;fill-rule:nonzero;fill:rgb(100%,100%,100%);fill-opacity:0;"
            d="M 0 0 L 46.589844 0 C 46.105469 0.195312 45.625 0.1875 45.117188 0.195312 C 35.070312 1.152344 25.375 5.230469 17.695312 11.777344 C 16.585938 12.636719 15.664062 13.691406 14.585938 14.585938 C 13.78125 15.570312 12.824219 16.40625 12.03125 17.390625 C 5.53125 24.921875 1.375 34.410156 0.289062 44.300781 C 0.105469 45.078125 0.304688 45.804688 0 46.546875 Z M 0 0 " />
        <path style=" stroke:none;fill-rule:nonzero;fill:currentColor;fill-opacity:1;"
            d="M 46.589844 0 L 53.421875 0 C 53.910156 0.222656 54.398438 0.171875 54.917969 0.195312 C 60.164062 0.722656 65.3125 2.070312 70.140625 4.195312 C 70.722656 4.492188 71.335938 4.71875 71.925781 5 C 75.75 6.929688 79.359375 9.261719 82.601562 12.070312 C 83.230469 12.6875 83.957031 13.167969 84.550781 13.820312 C 88.46875 17.589844 91.792969 21.984375 94.304688 26.8125 C 97.296875 32.507812 99.164062 38.8125 99.757812 45.21875 C 100 46.246094 99.660156 47.320312 100.035156 48.285156 L 100.035156 51.644531 C 99.777344 52.304688 99.859375 52.945312 99.855469 53.632812 C 99.4375 59.152344 98.140625 64.601562 95.949219 69.6875 C 95.328125 71.039062 94.792969 72.398438 94.015625 73.671875 C 92.476562 76.589844 90.601562 79.304688 88.511719 81.851562 C 87.949219 82.46875 87.484375 83.152344 86.863281 83.71875 C 86.148438 84.375 85.632812 85.183594 84.875 85.796875 C 83.980469 86.511719 83.277344 87.40625 82.347656 88.082031 C 74.648438 94.6875 64.90625 98.804688 54.808594 99.746094 C 53.722656 100.007812 52.640625 99.65625 51.617188 100.035156 L 48.242188 100.035156 C 47.636719 99.777344 47.046875 99.859375 46.40625 99.855469 C 36.234375 99.164062 26.347656 95.253906 18.449219 88.796875 C 13.65625 84.945312 9.621094 80.136719 6.554688 74.808594 C 5.898438 73.59375 5.179688 72.441406 4.65625 71.15625 C 2.394531 66.300781 0.886719 61.058594 0.296875 55.730469 C 0.101562 54.9375 0.3125 54.136719 0 53.398438 L 0 46.546875 C 0.304688 45.804688 0.105469 45.078125 0.289062 44.300781 C 1.375 34.410156 5.53125 24.921875 12.03125 17.390625 C 12.824219 16.40625 13.78125 15.570312 14.585938 14.585938 C 15.664062 13.691406 16.585938 12.636719 17.695312 11.777344 C 25.375 5.230469 35.070312 1.152344 45.117188 0.195312 C 45.625 0.1875 46.105469 0.195312 46.589844 0 Z M 46.589844 0 " />
        <path style=" stroke:none;fill-rule:nonzero;fill:currentColor;fill-opacity:0;"
            d="M 53.421875 0 L 100.035156 0 L 100.035156 48.285156 C 99.660156 47.320312 100 46.246094 99.757812 45.21875 C 99.164062 38.8125 97.296875 32.507812 94.304688 26.8125 C 91.792969 21.984375 88.46875 17.589844 84.550781 13.820312 C 83.957031 13.167969 83.230469 12.6875 82.601562 12.070312 C 79.359375 9.261719 75.75 6.929688 71.925781 5 C 71.335938 4.71875 70.722656 4.492188 70.140625 4.195312 C 65.3125 2.070312 60.164062 0.722656 54.917969 0.195312 C 54.398438 0.171875 53.910156 0.222656 53.421875 0 Z M 53.421875 0 " />
        <path style=" stroke:none;fill-rule:nonzero;fill:currentColor;fill-opacity:1;"
            d="M 40.121094 19.59375 C 46.890625 19.617188 53.699219 19.582031 60.464844 19.613281 C 61.835938 19.90625 63.199219 19.652344 64.5625 19.929688 C 67.464844 20.191406 70.277344 21.117188 72.746094 22.667969 C 73.75 23.351562 74.691406 24.183594 75.519531 25.066406 C 78.253906 27.820312 79.613281 31.835938 79.949219 35.632812 C 80.210938 36.859375 79.933594 38.046875 80.167969 39.289062 C 80.296875 39.972656 80.246094 40.71875 80.253906 41.421875 C 80.25 47.464844 80.25 53.507812 80.253906 59.550781 C 80.269531 60.171875 80.089844 60.765625 80.074219 61.382812 C 80.03125 62.355469 80.15625 63.257812 79.945312 64.21875 C 79.617188 67.761719 78.507812 71.226562 76.226562 74.003906 C 75.515625 74.765625 74.761719 75.515625 74.007812 76.226562 C 71.25 78.492188 67.730469 79.625 64.214844 79.941406 C 62.980469 80.210938 61.796875 79.933594 60.554688 80.164062 C 59.851562 80.296875 59.160156 80.246094 58.433594 80.253906 C 52.761719 80.25 47.089844 80.25 41.421875 80.253906 C 40.722656 80.246094 39.976562 80.296875 39.296875 80.167969 C 38.265625 79.976562 37.28125 80.128906 36.261719 80.042969 C 35.828125 79.980469 35.398438 79.894531 34.957031 79.871094 C 31.75 79.5 28.597656 78.40625 26.042969 76.398438 C 24.382812 74.96875 22.800781 73.328125 21.871094 71.320312 C 20.734375 69.167969 20.140625 66.816406 19.90625 64.402344 C 19.65625 63.296875 19.898438 62.21875 19.691406 61.105469 C 19.546875 60.351562 19.609375 59.585938 19.601562 58.800781 C 19.601562 52.453125 19.601562 46.097656 19.597656 39.746094 C 19.585938 39.242188 19.703125 38.765625 19.757812 38.269531 C 19.839844 37.308594 19.691406 36.398438 19.902344 35.449219 C 20.148438 33.027344 20.71875 30.683594 21.871094 28.53125 C 22.410156 27.339844 23.183594 26.3125 24.046875 25.339844 C 24.648438 24.480469 25.46875 23.972656 26.246094 23.285156 C 28.859375 21.292969 32.195312 20.195312 35.449219 19.90625 C 36.554688 19.65625 37.636719 19.898438 38.746094 19.691406 C 39.203125 19.605469 39.660156 19.589844 40.121094 19.59375 Z M 40.121094 19.59375 " />
        <path style=" stroke:none;fill-rule:nonzero;fill:rgb(100%,100%,100%);fill-opacity:1;"
            d="M 39.5625 25.144531 C 46.589844 25.15625 53.636719 25.136719 60.660156 25.15625 C 61.597656 25.273438 62.476562 25.375 63.429688 25.34375 C 65.667969 25.589844 68.128906 26.109375 69.976562 27.476562 C 70.71875 27.996094 71.328125 28.71875 71.972656 29.359375 C 73.488281 31.132812 74.167969 33.683594 74.4375 35.953125 C 74.617188 36.863281 74.425781 37.847656 74.585938 38.761719 C 74.757812 39.660156 74.695312 40.507812 74.703125 41.421875 C 74.703125 47.152344 74.703125 52.882812 74.703125 58.617188 C 74.699219 59.386719 74.746094 60.179688 74.609375 60.933594 C 74.457031 61.71875 74.546875 62.453125 74.515625 63.242188 C 74.265625 65.605469 73.777344 67.847656 72.449219 69.859375 C 72.066406 70.472656 71.554688 70.917969 71.054688 71.425781 C 69.902344 72.691406 68.15625 73.46875 66.535156 73.929688 C 65.042969 74.324219 63.480469 74.578125 61.9375 74.519531 C 61.253906 74.515625 60.601562 74.722656 59.917969 74.703125 C 53.257812 74.703125 46.597656 74.703125 39.933594 74.703125 C 39.125 74.722656 38.355469 74.464844 37.542969 74.515625 C 36.558594 74.582031 35.625 74.378906 34.65625 74.25 C 32.707031 73.851562 30.644531 73.1875 29.167969 71.796875 C 28.496094 71.105469 27.8125 70.542969 27.324219 69.753906 C 26.53125 68.652344 26.078125 67.273438 25.75 65.96875 C 25.535156 64.832031 25.277344 63.648438 25.332031 62.492188 C 25.367188 61.742188 25.132812 61.039062 25.144531 60.289062 C 25.148438 53.816406 25.148438 47.339844 25.148438 40.867188 C 25.152344 40.011719 25.097656 39.21875 25.257812 38.382812 C 25.421875 37.460938 25.230469 36.542969 25.449219 35.621094 C 25.664062 33.921875 26.078125 32.28125 26.882812 30.765625 C 27.582031 29.511719 28.640625 28.429688 29.753906 27.535156 C 31.746094 26.082031 34.023438 25.621094 36.421875 25.339844 C 36.910156 25.320312 37.410156 25.347656 37.898438 25.3125 C 38.457031 25.242188 38.996094 25.132812 39.5625 25.144531 Z M 39.5625 25.144531 " />
        <path style=" stroke:none;fill-rule:nonzero;fill:currentColor;fill-opacity:1;"
            d="M 65.152344 30.199219 C 65.71875 30.089844 66.332031 30.117188 66.90625 30.164062 C 67.539062 30.378906 68.195312 30.695312 68.660156 31.191406 C 69.871094 32.34375 70.128906 34.46875 69.105469 35.820312 C 68.5 36.578125 67.765625 37.257812 66.753906 37.371094 C 65.375 37.640625 63.835938 37.0625 63.042969 35.882812 C 62.625 35.300781 62.4375 34.527344 62.320312 33.828125 C 62.453125 32.132812 63.4375 30.617188 65.152344 30.199219 Z M 65.152344 30.199219 " />
        <path style=" stroke:none;fill-rule:nonzero;fill:currentColor;fill-opacity:1;"
            d="M 48.261719 34.398438 C 49.777344 34.398438 51.378906 34.261719 52.867188 34.589844 C 55.488281 35.121094 57.960938 36.257812 59.984375 38.019531 C 60.617188 38.492188 61.195312 39.027344 61.667969 39.664062 C 64.136719 42.488281 65.65625 46.339844 65.460938 50.109375 C 65.574219 53.09375 64.515625 56.007812 62.949219 58.507812 C 62.351562 59.375 61.660156 60.183594 60.972656 60.976562 C 60.121094 61.722656 59.234375 62.46875 58.285156 63.089844 C 56.582031 64.089844 54.804688 64.90625 52.847656 65.242188 C 51.382812 65.597656 49.976562 65.425781 48.441406 65.457031 C 45.273438 65.160156 42.171875 63.835938 39.765625 61.75 C 39.09375 61.253906 38.515625 60.65625 38.015625 59.988281 C 36.011719 57.675781 34.804688 54.785156 34.410156 51.761719 C 34.355469 50.59375 34.371094 49.425781 34.398438 48.261719 C 34.574219 46.476562 35.132812 44.710938 35.871094 43.085938 C 37.082031 40.761719 38.710938 38.679688 40.898438 37.199219 C 43.042969 35.644531 45.628906 34.6875 48.261719 34.398438 Z M 48.261719 34.398438 " />
        <path style=" stroke:none;fill-rule:nonzero;fill:rgb(100%,100%,100%);fill-opacity:1;"
            d="M 48.28125 39.96875 C 49.792969 39.851562 51.453125 39.800781 52.90625 40.289062 C 56.664062 41.433594 59.554688 44.882812 59.910156 48.8125 C 59.90625 49.667969 59.941406 50.53125 59.890625 51.386719 C 59.714844 52.414062 59.414062 53.414062 58.976562 54.359375 C 58.242188 55.832031 57.125 57.046875 55.84375 58.058594 C 54.539062 59.058594 52.996094 59.617188 51.386719 59.890625 C 50.472656 59.9375 49.546875 59.917969 48.632812 59.902344 C 45.773438 59.558594 43.140625 57.921875 41.550781 55.527344 C 40.328125 53.777344 39.792969 51.679688 39.890625 49.554688 C 39.878906 46.785156 41.308594 43.894531 43.472656 42.179688 C 44.8125 41.007812 46.539062 40.269531 48.28125 39.96875 Z M 48.28125 39.96875 " />
        <path style=" stroke:none;fill-rule:nonzero;fill:rgb(100%,100%,100%);fill-opacity:0;"
            d="M 100.035156 51.644531 L 100.035156 100.035156 L 51.617188 100.035156 C 52.640625 99.65625 53.722656 100.007812 54.808594 99.746094 C 64.90625 98.804688 74.648438 94.6875 82.347656 88.082031 C 83.277344 87.40625 83.980469 86.511719 84.875 85.796875 C 85.632812 85.183594 86.148438 84.375 86.863281 83.71875 C 87.484375 83.152344 87.949219 82.46875 88.511719 81.851562 C 90.601562 79.304688 92.476562 76.589844 94.015625 73.671875 C 94.792969 72.398438 95.328125 71.039062 95.949219 69.6875 C 98.140625 64.601562 99.4375 59.152344 99.855469 53.632812 C 99.859375 52.945312 99.777344 52.304688 100.035156 51.644531 Z M 100.035156 51.644531 " />
        <path style=" stroke:none;fill-rule:nonzero;fill:rgb(100%,100%,100%);fill-opacity:0;"
            d="M 0 53.398438 C 0.3125 54.136719 0.101562 54.9375 0.296875 55.730469 C 0.886719 61.058594 2.394531 66.300781 4.65625 71.15625 C 5.179688 72.441406 5.898438 73.59375 6.554688 74.808594 C 9.621094 80.136719 13.65625 84.945312 18.449219 88.796875 C 26.347656 95.253906 36.234375 99.164062 46.40625 99.855469 C 47.046875 99.859375 47.636719 99.777344 48.242188 100.035156 L 0 100.035156 Z M 0 53.398438 " />
</svg>