<?xml version="1.0" encoding="UTF-8" standalone="no"?>
<!DOCTYPE svg PUBLIC "-//W3C//DTD SVG 1.1//EN" "http://www.w3.org/Graphics/SVG/1.1/DTD/svg11.dtd">
<svg xmlns="http://www.w3.org/2000/svg" xmlns:xlink="http://www.w3.org/1999/xlink" width="100" height="100" viewBox="0 0 100 100" version="1.1">
    <path style=" stroke:none;fill-rule:nonzero;fill:currentColor;fill-opacity:1;"
        d="M 100 50 C 100 77.613281 77.613281 100 50 100 C 22.386719 100 0 77.613281 0 50 C 0 22.386719 22.386719 0 50 0 C 77.613281 0 100 22.386719 100 50 Z M 100 50 " />
    <path style=" stroke:none;fill-rule:nonzero;fill:rgb(100%,100%,100%);fill-opacity:1;"
        d="M 76.667969 32.082031 C 74.792969 33.125 72.5 33.75 70.417969 33.957031 C 72.707031 32.5 74.375 30.207031 75.207031 27.5 C 73.125 28.75 70.832031 29.792969 68.125 30.417969 C 66.042969 28.125 63.332031 26.667969 60.207031 26.667969 C 54.167969 26.667969 49.167969 31.875 49.167969 38.542969 C 49.167969 39.375 49.167969 40.417969 49.375 41.25 C 40.207031 40.832031 32.082031 36.042969 26.667969 28.957031 C 25.625 30.625 25.207031 32.707031 25.207031 35 C 25.207031 39.167969 27.082031 42.707031 30 44.792969 C 28.125 44.792969 26.457031 44.167969 25 43.332031 C 25 43.332031 25 43.542969 25 43.542969 C 25 49.167969 28.75 53.957031 33.75 55.207031 C 32.917969 55.417969 31.875 55.625 30.832031 55.625 C 30.207031 55.625 29.375 55.625 28.75 55.417969 C 30.207031 60.207031 34.167969 63.542969 38.957031 63.542969 C 35.207031 66.667969 30.417969 68.542969 25.417969 68.542969 C 24.582031 68.542969 23.75 68.542969 22.707031 68.332031 C 27.5 71.667969 33.332031 73.75 39.582031 73.75 C 59.792969 73.75 70.832031 55.832031 70.832031 40.207031 C 70.832031 39.792969 70.832031 39.167969 70.832031 38.75 C 73.332031 36.667969 75.207031 34.582031 76.667969 32.082031 Z M 76.667969 32.082031 " />
</svg>